<svg xmlns="http://www.w3.org/2000/svg" clip-rule="evenodd" fill-rule="evenodd" stroke-linejoin="round" stroke-miterlimit="2" viewBox="0 0 140 100">
   <path class="logo__color logo__color_1" d="m60 0v60a20.176 20.176 0 0 1 -.166 2.584v.002l-.008.057v.003l-.008.055v.006l-.007.053v.006l-.008.054v.004l-.01.055v.002c-.034.234-.071.466-.113.697v.002l-.01.055v.004l-.01.054-.002.004-.01.053-.002.006-.01.053v.005l-.011.053v.004l-.012.055v.002c-.042.21-.086.419-.134.627v.002l-.014.054v.004l-.014.053v.006l-.014.05-.001.006-.012.051-.002.006-.012.05-.002.007-.013.052v.004l-.014.053v.002c-.048.188-.1.373-.152.559v.002l-.016.052-.002.006-.014.049-.002.008-.013.049-.002.007-.016.047-.002.008-.016.049-.001.008-.014.049-.002.006-.016.05-.002.004-.015.053c-.052.165-.107.329-.162.492v.004l-.018.049-.002.006-.016.049-.003.007-.016.047-.004.008-.016.047-.004.008-.015.047-.004.007-.016.047-.004.008-.015.047-.004.008-.018.047-.002.006-.017.05a20.14 20.14 0 0 1 -.164.428l-.002.002-.02.049-.002.006-.017.047-.004.007-.018.045-.004.01-.02.043-.003.012-.018.043-.004.01-.017.042-.006.01-.018.045-.004.01-.02.043-.001.008-.02.047-.003.005-.02.05c-.053.122-.107.243-.162.364l-.002.002-.022.047-.002.006-.021.045-.004.008-.02.043-.003.01-.02.043-.006.01-.02.04-.005.012-.02.041-.004.012-.02.04-.005.013-.02.04-.005.01-.02.043-.004.008-.023.045-.002.004c-.058.118-.116.237-.176.353h-.002l-.023.047-.004.006-.022.043-.004.008-.021.041-.006.012-.021.039-.006.012-.022.039-.006.011-.021.04-.006.013-.021.037-.006.014-.022.037-.006.014-.021.039-.006.01-.023.04-.004.008-.024.043-.004.004c-.054.098-.11.196-.166.293v.002l-.025.043-.004.006-.023.04-.006.01-.022.04-.008.011-.021.038-.008.013-.021.035-.008.014-.022.037-.01.012-.021.037-.008.014-.021.035-.008.013-.023.038-.008.011-.022.037-.008.012-.023.037-.006.01-.025.041-.002.004c-.058.094-.118.186-.178.277l-.004.008-.025.037-.006.012-.024.035-.01.014-.02.035-.01.012-.022.035-.012.015-.021.034-.01.013-.022.033-.011.016-.022.033-.01.014-.023.033-.01.016-.021.033-.01.014-.023.033-.01.014-.024.035-.007.01-.026.037-.002.004-.158.222-.006.006-.025.035-.008.012-.025.035-.01.014-.024.031-.01.016-.023.03-.012.016-.023.03-.012.017-.021.03-.012.015-.023.032-.012.015-.023.031-.012.016-.024.03-.011.015-.024.031-.01.014-.025.033-.01.012-.025.033-.008.01-.027.037-.135.172-.006.006-.027.033-.01.013-.025.032-.01.013-.026.03-.011.015-.024.03-.013.015-.024.03-.013.015-.024.03-.014.015-.021.027-.016.018-.021.027-.014.018-.023.027-.014.018-.025.027-.012.016-.025.03-.012.013-.026.031-.011.012-.026.031-.008.01-.136.156-.006.008-.027.031-.012.012-.026.03-.011.013-.026.03-.013.013-.024.027-.015.018-.024.025-.015.018-.024.025-.016.018-.023.025-.016.018-.023.025-.016.018-.023.025-.016.016-.023.027-.016.016-.023.027-.016.015-.025.028-.014.013-.025.028-.012.014-.03.029-.005.006-.108.113-.003.004-.03.03-.011.01-.026.028-.016.016-.023.025-.016.016-.025.023-.016.018-.025.025-.016.016-.023.025-.018.016-.023.023-.018.018-.023.025-.018.016-.025.025-.018.016-.023.023-.018.018-.023.023-.018.018-.023.023-.018.016-.025.025-.016.014-.025.027-.014.012-.029.028-.004.003a8.075 8.075 0 0 1 -.107.102l-.014.012-.025.025-.016.014-.025.025-.018.016-.025.021-.018.018-.025.023-.018.016-.025.021-.018.018-.025.023-.018.016-.025.022-.018.017-.025.022-.02.017-.023.022-.02.017-.023.022-.02.017-.025.022-.018.015-.025.024-.018.015-.025.022-.018.016-.027.023-.016.012-.1.088-.015.011-.025.022-.02.015-.023.024-.02.016-.025.019-.02.018-.025.02-.02.017-.025.02-.02.017-.025.02-.02.017-.025.02-.02.017-.025.02-.02.017-.025.02-.021.015-.024.02-.021.017-.023.02-.022.018-.025.02-.02.015-.025.02-.022.017-.025.02-.02.015-.025.02-.018.013-.027.022-.03.023-.015.012-.027.02-.02.017-.025.017-.022.018-.023.018-.024.017-.023.018-.021.017-.026.018-.021.018-.026.017-.021.018-.026.017-.021.016-.025.017-.022.018-.025.018-.022.017-.025.018-.024.015-.023.02-.024.016-.023.017-.023.016-.026.017-.021.018-.026.017-.023.016-.026.018-.021.017-.025.016-.047.033-.024.018-.023.015-.026.018-.023.016-.023.017-.026.016-.023.017-.024.016-.025.017-.023.016-.026.018-.023.015-.026.016-.023.016-.024.017-.025.016-.023.015-.026.016-.023.018-.026.015-.025.016-.023.015-.026.016-.023.018-.026.015-.023.016-.026.016-.025.015-.023.016-.028.017-.023.014-.03.022-.019.01-.018.011-.03.02-.024.013-.026.018-.025.013-.025.016-.024.016-.025.015-.026.016-.025.016-.025.015-.026.014-.023.016-.026.015-.025.016-.025.013-.026.016-.025.016-.026.013-.025.016-.025.016-.026.013-.025.016-.026.016-.025.013-.025.014-.026.016-.025.013-.025.016-.028.015-.023.014-.032.018-.019.01-.05.029-.02.011-.032.018-.023.012-.027.015-.026.014-.027.014-.024.013-.027.016-.025.014-.028.013-.023.014-.027.016-.026.011-.027.016-.026.014-.025.013-.025.014-.028.014-.025.013-.027.014-.026.012-.027.015-.024.012-.027.016-.025.011-.03.016-.023.012-.03.015-.023.012-.031.016-.022.01-.046.025-.006.002-.014.006-.039.02-.021.009-.032.016-.023.011-.03.016-.023.012-.03.011-.025.014-.027.014-.025.011-.028.014-.025.012-.03.014-.025.011-.027.014-.025.012-.03.011-.025.012-.027.014-.026.011-.03.014-.025.01-.027.014-.025.011-.03.014-.025.012-.03.011-.023.012-.033.014-.021.01-.04.017-.015.006-.053.025-.02.006-.035.016-.023.012-.031.011-.024.01-.03.014-.024.011-.032.012-.025.01-.03.014-.025.01-.029.013-.025.01-.03.012-.025.01-.03.011-.025.012-.029.011-.025.01-.03.012-.027.01-.03.013-.025.008-.029.014-.025.01-.032.011-.023.01-.033.012-.024.01-.035.011-.02.01-.054.02-.014.004-.043.017-.021.008-.035.014-.024.007-.031.012-.025.01-.032.012-.025.007-.03.012-.027.008-.03.012-.024.01-.032.01-.025.009-.031.012-.026.008-.029.011-.027.008-.03.01-.027.01-.03.011-.027.008-.03.01-.026.01-.032.01-.025.007-.031.012-.026.008-.035.011-.021.006-.045.016-.012.004-.056.017-.018.006-.04.012-.023.008-.033.01-.025.007-.031.012-.026.006-.033.012-.025.006-.032.01-.025.007-.031.01-.028.008-.03.01-.026.007-.032.01-.027.008-.031.008-.026.008-.03.007-.028.01-.031.008-.028.008-.031.008-.025.007-.034.01-.025.006-.035.01-.022.006-.04.011-.018.004-.059.016-.011.004-.045.011-.022.006-.037.01-.025.006-.034.01-.025.006-.033.007-.026.006-.033.01-.027.006-.031.008-.028.006-.031.007-.027.006-.032.008-.027.008-.031.006-.028.008-.03.005-.028.008-.033.006-.026.008-.033.006-.025.006-.035.007-.026.006-.033.008-.025.006-.038.008-.021.004-.05.011-.009.002-.06.012-.018.004-.04.008-.024.006-.035.007-.026.004-.035.008-.025.004-.033.006-.028.006-.033.006-.027.005-.032.006-.027.006-.033.006-.028.006-.03.006-.03.004-.031.006-.028.005-.033.004-.027.006-.033.006-.028.004-.033.008-.025.004-.035.004-.026.005-.037.006-.023.004-.043.008-.018.002-.059.01-.013.002-.047.006-.024.005-.037.004-.025.004-.035.006-.028.004-.033.004-.027.004-.033.006-.028.004-.033.003-.027.004-.033.004-.03.004-.031.004-.03.006-.032.004-.028.002-.033.004-.027.004-.034.004-.027.003-.035.004-.027.004-.034.004-.027.002-.035.004-.025.004-.041.004-.02.002-.057.006-.006.002-.06.005-.02.002-.04.004-.026.002-.037.004-.026.004-.035.002-.027.002-.035.004-.028.002-.033.004-.027.002-.035.002-.028.004-.033.001-.03.002-.032.004-.028.002-.035.002-.027.002-.033.002-.03.002-.033.004-.027.002-.035.002h-.028l-.037.002-.025.002-.04.002-.023.002-.045.002-.015.002-.063.004h-.015l-.047.002-.024.001-.039.002h-.025l-.037.002h-.026l-.037.002-.027.002h-.033l-.03.002h-.033l-.029.002h-.063l-.035.002h-.027l-.035.002h-.063l-.027.002h-.035l-.028.002h-.164l-.025.002h-.254l-.297-.006a2.448 2.448 0 0 0 -.09-.002l-.064-.002h-.027c-.05 0-.1-.003-.149-.004l-.144-.008-.065-.001-.086-.004-.04-.002-.065-.006-.065-.002-.062-.004c-.053-.003-.106-.009-.158-.012a20.708 20.708 0 0 1 -.725-.064h-.004l-.055-.006c-.395-.044-.786-.1-1.173-.166l-.174-.031-.028-.004-.062-.012-.06-.012a17.016 17.016 0 0 1 -.516-.103l-.033-.008-.043-.008c-.156-.034-.31-.072-.463-.11a15.877 15.877 0 0 1 -.989-.269l-.078-.023-.166-.051-.053-.018-.007-.003-.114-.036-.054-.017-.041-.014-.157-.053-.123-.043-.027-.01-.027-.007-.203-.074-.059-.02-.135-.05c-.048-.02-.096-.037-.144-.055a20.3 20.3 0 0 1 -.428-.17l-.031-.014-.022-.008a14.455 14.455 0 0 1 -.549-.236l-.1-.045-.054-.027-.057-.026-.003-.002a32.073 32.073 0 0 1 -.325-.154l-.048-.023c-.266-.13-.527-.265-.786-.407l-.132-.072-.159-.088-.242-.14-.072-.043a20.055 20.055 0 0 1 -1.654-1.092l-.164-.121-.182-.139c-.046-.034-.09-.07-.135-.105l-.049-.038-.097-.078-.043-.033-.032-.023-.29-.24-.067-.055a19.822 19.822 0 0 1 -.773-.688l-.063-.058c-.11-.106-.222-.21-.33-.317l-.014-.015-.02-.018a18.847 18.847 0 0 1 -.202-.205l-.032-.033-.015-.016c-.107-.11-.21-.22-.315-.332l-.04-.043-.034-.033a18.7 18.7 0 0 1 -.322-.361l-.006-.006-.041-.045-.04-.047-.038-.045-.04-.045-.03-.037a36.803 36.803 0 0 1 -.086-.102l-.038-.044a20.068 20.068 0 0 1 -.562-.706l-.041-.052a20.94 20.94 0 0 1 -.209-.282l-.002-.002-.01-.013c-.046-.063-.091-.128-.136-.192l-.03-.04-.008-.012a19.981 19.981 0 0 1 -1.357-2.215l-.018-.035-.01-.016-.095-.187a19.754 19.754 0 0 1 -.602-1.291l-.017-.043-.016-.036c-.08-.193-.157-.387-.232-.584-.028-.071-.054-.144-.08-.216-.086-.235-.169-.47-.246-.71l-.04-.118-.017-.06-.022-.067a22.169 22.169 0 0 1 -.042-.141l-.026-.086c-.014-.046-.028-.09-.04-.137-.023-.076-.044-.154-.065-.23l-.037-.135-.032-.115-.025-.096-.014-.058a19.9 19.9 0 0 1 -.08-.325l-.035-.148a19.87 19.87 0 0 1 -.46-3.192c-.027-.42-.04-.845-.04-1.273v-.221l.002-.037v-.094l.002-.035v-.064l.002-.03v-.033l.002-.03v-.065l.002-.034.002-.03v-.034l.002-.031v-.033l.002-.032v-.033l.002-.03.002-.032.001-.032v-.033l.002-.031.002-.033.002-.032.002-.03.002-.032.002-.033.002-.032.002-.033.002-.029.002-.033.002-.032.002-.033.002-.031.002-.031.002-.031.002-.034.004-.03.002-.032.002-.031.002-.034.003-.03.002-.032.002-.031.004-.032.002-.03.002-.034.004-.031.002-.032.004-.03.002-.032.004-.031.002-.034.004-.03.004-.032.001-.031.004-.032.004-.03.002-.032.004-.031.004-.032.004-.03.002-.034.004-.03.004-.032.004-.032.004-.031.003-.031.004-.031.004-.032.004-.031.004-.031.004-.031.004-.032.004-.031.006-.03.004-.032.003-.03.004-.031.004-.031.006-.032.004-.03.004-.032.006-.031.004-.032.004-.03.005-.032.004-.03.006-.03.004-.032.006-.031.004-.031.006-.032.004-.029.006-.031.005-.031.004-.032.006-.03.006-.032.004-.03.006-.03.006-.032.006-.031.005-.03.004-.03.006-.032.006-.03.006-.03.006-.032.006-.029.005-.031.006-.032.006-.029.006-.031.006-.031.006-.03.006-.03.005-.032.008-.03.006-.03.006-.03.006-.031.008-.031.006-.03.005-.031.008-.03.006-.03.006-.03.008-.031.006-.03.007-.03.006-.03.008-.031.006-.03.008-.03.008-.03.005-.031.008-.03.006-.03.008-.03.008-.03.008-.03.005-.03.008-.031.008-.03.008-.029.006-.031.007-.03.008-.029.008-.03.008-.03.008-.03.008-.03.007-.03.008-.03.008-.029.008-.03.008-.03.007-.03.008-.029.01-.031.008-.03.008-.029.007-.029.008-.031.01-.03.008-.029.008-.03.007-.028.01-.03.008-.03.01-.03.008-.03.007-.029.01-.03.008-.028.01-.03.008-.029.01-.03.01-.029.007-.029.01-.03.01-.029.007-.029.01-.03.01-.028.01-.03.007-.029.01-.03.01-.029.01-.029.01-.03.01-.028.007-.03.01-.03.01-.028.01-.03.01-.027.009-.03.01-.029.01-.029.011-.03.01-.028.01-.028.01-.03.01-.028.009-.03.012-.029.01-.027.01-.03.009-.029.012-.03.01-.027.01-.029.01-.03.01-.027.01-.029.012-.03.01-.026.012-.03.01-.03.011-.026.01-.03.012-.027.01-.03.011-.029.012-.027.01-.03.011-.027.012-.029.01-.027.011-.03.012-.027.012-.03.01-.027.011-.029.012-.027.012-.03.012-.027.011-.03.012-.026.012-.028.011-.03.012-.026.012-.03.012-.027.011-.027.012-.03.012-.027.011-.027.012-.03.012-.027.012-.027.013-.028.012-.029.012-.027.011-.028.014-.027.012-.03.012-.027.013-.027.012-.027.012-.028.013-.027.012-.03.014-.027.011-.027.014-.027.012-.028.014-.027.011-.027.014-.028.014-.027.011-.027.014-.028.012-.027.013-.03.014-.025.014-.027.011-.028.014-.027.014-.027.013-.028.012-.027.014-.027.014-.028.013-.027.014-.027.014-.028.013-.025.014-.027.014-.028.013-.027.014-.027.014-.028.013-.025.014-.027.014-.028.013-.027.014-.026.016-.027.013-.027.014-.028.014-.025.013-.027.016-.028.014-.025.013-.027.016-.026.013-.027.014-.027.016-.026.013-.027.016-.026.014-.027.015-.025.014-.028.016-.025.013-.027.016-.026.014-.027.015-.026.014-.027.016-.025.015-.028.014-.025.015-.027.016-.026.014-.025.015-.027.016-.026.016-.025.013-.028.016-.025.016-.025.015-.028.016-.025.015-.026.016-.025.016-.027.015-.026.016-.025.016-.025.015-.026.016-.027.015-.026.016-.025.016-.025.015-.026.016-.025.016-.026.015-.025.018-.025.015-.026.016-.027.016-.025.017-.026.016-.025.015-.026.016-.023.018-.025.015-.026.018-.025.016-.026.015-.025.018-.025.015-.026.018-.025.016-.026.017-.023.016-.025.017-.026.016-.025.018-.026.017-.023.016-.025.017-.026.018-.025.016-.024.017-.025.018-.025.015-.024.018-.025.017-.026.018-.023.016-.025.017-.026.018-.023.017-.026.018-.023.018-.025.017-.024.018-.025.017-.024.018-.025.017-.024.018-.025.018-.023.017-.026.018-.023.017-.026.018-.023.017-.023.018-.026.018-.023.02-.024.017-.025.017-.024.018-.023.017-.025.02-.024.018-.023.017-.024.02-.025.017-.024.018-.023.02-.023.017-.024.018-.023.02-.026.017-.023.02-.024.017-.023.02-.023.017-.024.02-.023.017-.024.02-.023.017-.024.02-.023.02-.023.017-.024.02-.023.019-.024.017-.023.02-.024.02-.023.019-.024.018-.021.02-.023.019-.024.02-.023.017-.024.02-.021.019-.024.02-.023.019-.024.02-.021.019-.023.02-.024.019-.023.02-.022.019-.023.02-.022.02-.023.019-.024.02-.021.019-.024.02-.021.019-.023.02-.024.02-.021.02-.022.02-.023.02-.022.019-.023.021-.022.02-.023.02-.022.019-.023.021-.022.02-.021.02-.024.021-.021.02-.021.02-.024.02-.021.02-.022.022-.021.02-.024.02-.021.02-.022.022-.021.02-.022.02-.021.02-.024.022-.021.02-.022.02-.021.022-.022.02-.021.021-.022.022-.021.02-.022.02-.021.022-.022.02-.021.021-.021.022-.022.021-.021.022-.022.02-.021.02-.022.022-.02.022-.02.021-.022.022-.022.021-.021.022-.02.021-.021.02-.022.021-.021.021-.02.022-.021.021-.022.024-.02.021-.02.022-.022.021-.02.022-.021.021-.02.022-.021.021-.02.022-.021.023-.02.022-.021.021-.02.022-.021.023-.02.022-.021.021-.02.022-.021.023-.02.021-.02.022-.021.023-.02.022-.02.023-.02.022-.02.021-.02.024-.02.021-.02.024-.02.021-.02.024-.02.021-.019.023-.02.022-.02.023-.02.022-.02.023-.02.024-.019.021-.02.024-.019.021-.02.024-.019.023-.02.022-.02.023-.019.023-.02.024-.019.021-.017.024-.02.023-.02.024-.019.023-.02.022-.019.023-.017.023-.02.024-.02.023-.02.024-.017.023-.02.024-.019.021-.017.026-.02.021-.02.023-.017.024-.02.023-.017.024-.02.025-.017.024-.02.023-.017.023-.02.024-.017.023-.02.024-.017.023-.02.024-.018.025-.017.023-.02.024-.017.023-.018.026-.02.023-.017.024-.018.023-.017.025-.02.024-.017.023-.018.026-.017.023-.018.024-.02.025-.017.023-.018.024-.017.025-.018.024-.017.025-.018.023-.018.026-.017.023-.018.026-.017.023-.018.026-.017.023-.018.025-.018.024-.015.025-.018.026-.017.023-.018.025-.018.026-.017.023-.016.026-.017.025-.018.023-.016.026-.017.025-.018.024-.015.025-.018.025-.017.026-.016.025-.018.024-.015.025-.018.025-.016.026-.017.025-.016.026-.017.025-.016.023-.017.026-.016.025-.016.026-.017.025-.016.025-.016.026-.017.025-.016.026-.015.025-.018.025-.016.026-.015.025-.016.026-.015.025-.016.027-.018.026-.015.025-.016.025-.016.026-.015.025-.016.026-.015.027-.016.025-.016.026-.015.025-.016.026-.016.027-.015.025-.016.026-.013.027-.016.025-.016.026-.015.027-.016.026-.014.025-.015.027-.016.026-.016.025-.013.027-.016.026-.015.027-.014.026-.016.027-.013.025-.016.028-.016.025-.013.027-.016.026-.014.027-.015.025-.014.028-.014.025-.015.028-.014.027-.016.025-.013.028-.014.025-.015.027-.014.028-.014.025-.014.027-.015.028-.014.027-.013.025-.014.028-.014.027-.013.026-.016.027-.014.027-.013.028-.014.027-.014.025-.013.028-.014.027-.014.027-.013.028-.014.027-.014.027-.012.028-.013.025-.014.027-.014.028-.013.027-.014.027-.012.028-.013.027-.014.028-.014.027-.011.027-.014.028-.012.027-.013.027-.014.028-.012.027-.013.03-.012.027-.014.027-.012.027-.013.028-.012.027-.014.027-.011.028-.014.029-.012.027-.011.028-.014.027-.012.03-.012.027-.011.027-.014.027-.012.03-.011.027-.012.027-.012.028-.014.029-.011.027-.012.028-.012.029-.011.027-.012.028-.012.029-.012.027-.011.03-.012.027-.012.03-.011.027-.012.027-.01.03-.012.026-.011.03-.012.027-.012.03-.01.027-.011.03-.012.026-.012.03-.01.027-.011.03-.012.029-.01.027-.011.03-.01.027-.012.029-.01.03-.011.027-.01.029-.012.03-.01.027-.011.029-.01.03-.01.026-.012.03-.01.029-.01.027-.01.03-.01.029-.01.03-.01.027-.01.029-.012.03-.01.029-.01.029-.009.03-.01.026-.01.03-.01.029-.009.03-.01.029-.01.029-.01.03-.009.029-.01.027-.01.03-.01.028-.01.03-.007.03-.01.028-.01.03-.01.029-.009.03-.008.029-.01.029-.01.03-.007.028-.01.03-.01.029-.007.031-.01.028-.008.03-.01.03-.008.03-.01.029-.007.03-.01.028-.008.03-.008.029-.007.031-.01.03-.008.029-.008.03-.01.028-.007.032-.008.029-.008.03-.008.029-.008.029-.01.031-.007.03-.008.029-.008.03-.008.03-.007.03-.008.03-.008.03-.008.03-.006.029-.008.03-.007.03-.008.031-.008.03-.008.029-.006.031-.008.03-.007.03-.008.03-.006.03-.008.03-.008.03-.005.031-.008.03-.006.03-.008.03-.006.031-.008.03-.005.03-.008.03-.006.031-.008.03-.006.031-.008.03-.005.03-.006.03-.006.031-.008.031-.006.03-.006.03-.006.032-.007.03-.006.03-.006.03-.006.031-.006.031-.006.03-.006.031-.005.031-.006.03-.006.03-.006.032-.004.031-.006.03-.006.03-.005.032-.006.031-.006.03-.004.03-.006.032-.006.031-.004.03-.006.03-.005.032-.004.031-.006.032-.004.03-.006.03-.004.031-.006.032-.004.031-.006.031-.003.031-.006.03-.004.033-.004.03-.006.03-.004.032-.004.031-.006.031-.004.032-.003.03-.004.032-.004.031-.004.032-.006.03-.004.032-.004.031-.004.032-.004.03-.004.032-.003.031-.004.032-.004.03-.002.032-.004.031-.004.032-.004.03-.004.032-.002.031-.004.033-.004.032-.002.031-.003.031-.004.031-.002.032-.004.031-.002.031-.004.033-.002.032-.004.03-.002.032-.004.031-.002.032-.002.033-.004.031-.002.031-.002.032-.003.03-.002.034-.002.031-.002.032-.002.03-.004.034-.002.031-.002.032-.002.033-.002.031-.002.031-.002.032-.002.033-.002.031-.002.031-.002.033-.002.032-.002h.033l.031-.002.031-.002.032-.001h.033l.031-.002.033-.002h.032l.033-.002.031-.002h.033l.031-.002h.034l.029-.002h.035l.03-.002h.064l.035-.002h.064l.03-.002h.129l.043-.002h15.15v-5h-15c-13.798 0-25 11.202-25 25s11.202 25 25 25c8.175 0 15.437-3.932 20-10.006v25.006h5v-40c0-19.317 15.683-35 35-35s35 15.683 35 35-15.683 35-35 35h-15v5h15c22.077 0 40-17.924 40-40 0-22.077-17.924-40-40-40-15.052 0-28.174 8.333-35 20.633v-40.633z" />
   <path class="logo__color logo__color_2" d="m65 0v60c0 13.798-11.202 25-25 25s-25-11.202-25-25 11.202-25 25-25h15v-5h-15c-16.557 0-30 13.443-30 30 0 16.558 13.443 30 30 30 10.432 0 19.624-5.338 25-13.428v23.428h5v-40c0-16.558 13.443-30 30-30s30 13.442 30 30-13.443 30-30 30h-15v5h15c19.317 0 35-15.683 35-35s-15.683-35-35-35c-12.727 0-23.874 6.81-30 16.98v-41.98z" />
   <path class="logo__color logo__color_3" d="m70 0v60c0 16.558-13.443 30-30 30s-30-13.442-30-30 13.443-30 30-30h15v-5h-15c-19.317 0-35 15.683-35 35s15.683 35 35 35c12.727 0 23.874-6.81 30-16.98v21.98h5v-40c0-13.798 11.202-25 25-25s25 11.202 25 25-11.202 25-25 25h-15v5h15c16.557 0 30-13.443 30-30 0-16.558-13.443-30-30-30-10.432 0-19.624 5.34-25 13.43v-43.43z" />
   <path class="logo__color logo__color_4" d="m80 45.005c4.563-6.073 11.826-10.005 20-10.005 13.798 0 25 11.202 25 25s-11.202 25-25 25h-15v-5h15.22l.039-.002h.094l.034-.002h.065l.03-.002h.064l.034-.002h.03l.034-.002h.031l.034-.002h.03l.033-.002h.031l.034-.002.03-.002h.033l.031-.002.033-.002h.03l.034-.003h.031l.033-.003.03-.002.033-.002.031-.001.033-.002.03-.002.033-.003.032-.002.032-.002.032-.002.031-.002.032-.002.032-.002.03-.003.033-.002.031-.002.033-.004.03-.002.033-.003.031-.002.032-.003.032-.002.031-.003.031-.003.033-.002.03-.003.032-.004.031-.003.033-.003.03-.003.032-.003.031-.003.031-.003.033-.004.03-.003.032-.004.031-.003.031-.004.032-.003.032-.004.031-.003.031-.004.032-.004.03-.004.032-.004.031-.003.031-.004.032-.004.03-.005.032-.004.031-.004.031-.004.03-.004.032-.005.03-.004.032-.004.031-.004.032-.005.03-.005.032-.005.03-.004.031-.004.03-.005.033-.006.03-.004.031-.005.03-.004.032-.005.03-.006.032-.005.03-.005.032-.005.03-.005.03-.006.032-.005.03-.005.032-.005.03-.005.03-.006.031-.006.031-.005.03-.006.032-.005.03-.006.03-.006.031-.006.03-.005.032-.007.03-.006.031-.005.03-.006.03-.007.03-.006.032-.006.03-.006.03-.006.03-.007.032-.006.03-.006.03-.006.03-.007.03-.007.03-.006.032-.006.03-.008.03-.006.03-.007.03-.006.031-.008.03-.007.03-.006.03-.008.03-.007.031-.006.03-.007.03-.008.03-.007.03-.007.03-.008.03-.007.03-.007.03-.008.03-.007.031-.008.03-.007.03-.008.029-.008.03-.007.03-.009.03-.007.03-.008.03-.008.029-.008.03-.008.03-.007.03-.009.03-.008.03-.008.029-.008.03-.009.03-.007.03-.009.029-.008.03-.01.03-.008.028-.008.03-.008.03-.009.029-.009.03-.008.03-.009.029-.009.029-.008.03-.01.03-.008.028-.01.03-.009.03-.01.029-.007.03-.01.028-.01.03-.009.029-.008.029-.01.03-.009.028-.01.03-.01.029-.009.029-.01.03-.009.028-.01.03-.01.029-.009.029-.01.03-.01.028-.01.029-.009.029-.01.029-.01.03-.01.027-.01.03-.01.029-.01.029-.01.028-.01.03-.011.027-.01.03-.011.029-.01.028-.01.029-.011.028-.01.03-.011.028-.01.029-.011.028-.011.029-.01.028-.011.028-.012.03-.01.027-.01.03-.012.028-.012.028-.01.028-.011.029-.012.028-.01.028-.012.028-.011.03-.012.027-.01.029-.012.028-.011.028-.011.028-.012.028-.012.028-.01.028-.013.029-.012.028-.011.028-.012.028-.012.028-.012.028-.011.027-.013.03-.011.026-.013.029-.011.028-.013.028-.012.027-.012.028-.012.028-.013.028-.012.027-.012.028-.012.027-.013.029-.012.027-.013.028-.012.027-.013.028-.012.027-.013.028-.013.027-.013.028-.012.027-.013.029-.013.027-.013.027-.013.028-.013.027-.012.027-.014.028-.013.026-.013.028-.013.027-.013.027-.013.028-.014.027-.013.027-.013.028-.013.027-.014.027-.013.027-.014.027-.014.026-.013.028-.014.026-.013.027-.015.028-.013.027-.014.027-.013.027-.015.026-.014.027-.014.027-.014.027-.013.026-.015.027-.014.026-.014.027-.014.027-.014.026-.015.028-.014.026-.015.027-.013.026-.015.027-.014.026-.015.026-.015.027-.014.026-.015.027-.014.026-.015.026-.016.026-.014.027-.015.026-.014.026-.016.026-.014.027-.015.025-.016.027-.014.026-.015.026-.015.026-.016.026-.015.026-.015.026-.016.026-.015.026-.015.025-.016.026-.015.026-.015.026-.016.026-.015.026-.016.025-.016.026-.015.026-.016.025-.015.026-.017.026-.016.025-.015.026-.016.025-.016.026-.016.025-.016.026-.017.025-.015.026-.016.025-.017.025-.016.026-.016.025-.016.025-.016.026-.017.025-.016.025-.016.025-.017.026-.016.025-.017.025-.017.025-.016.025-.017.025-.017.025-.016.025-.017.025-.017.025-.016.025-.017.025-.017.025-.018.024-.016.025-.017.025-.017.025-.017.024-.017.025-.018.025-.016.025-.018.024-.017.025-.017.024-.017.025-.018.024-.017.025-.018.024-.017.025-.018.024-.017.025-.018.024-.018.024-.017.025-.017.024-.019.024-.018.025-.017.024-.018.024-.018.024-.017.024-.018.024-.018.024-.019.024-.017.024-.018.024-.019.024-.017.024-.02.024-.017.024-.018.024-.018.024-.02.024-.017.023-.019.024-.018.024-.018.024-.019.023-.018.024-.02.024-.017.023-.019.024-.018.022-.02.024-.018.023-.019.024-.018.023-.02.023-.018.024-.02.023-.018.024-.02.023-.018.023-.019.023-.02.024-.018.023-.019.022-.02.023-.019.023-.02.023-.018.023-.02.023-.019.023-.02.023-.018.023-.02.023-.02.022-.019.023-.02.023-.02.022-.019.023-.02.023-.02.022-.02.023-.018.023-.02.022-.02.022-.02.022-.02.023-.02.022-.02.023-.02.022-.02.023-.02.022-.02.023-.02.022-.02.021-.02.022-.02.023-.02.022-.02.022-.02.022-.021.022-.02.022-.021.023-.02.02-.02.023-.022.021-.02.022-.02.022-.021.022-.02.022-.022.022-.02.022-.02.02-.021.022-.02.022-.022.022-.02.02-.021.023-.021.02-.021.022-.022.022-.02.021-.022.02-.02.023-.021.02-.022.023-.02.02-.022.021-.022.022-.02.02-.022.022-.021.02-.022.021-.02.022-.023.02-.02.022-.022.02-.021.021-.022.021-.022.02-.022.022-.02.02-.023.02-.021.021-.022.02-.022.022-.022.02-.022.02-.02.021-.024.02-.022.02-.021.022-.022.02-.022.02-.022.02-.022.02-.022.02-.023.02-.022.021-.022.02-.021.02-.023.02-.022.02-.023.02-.022.02-.023.02-.022.02-.023.02-.022.02-.023.02-.021.02-.023.019-.023.02-.022.02-.023.019-.023.02-.023.02-.022.02-.023.018-.023.02-.022.02-.023.018-.023.02-.023.019-.023.02-.023.018-.023.02-.023.019-.023.02-.023.018-.024.02-.023.019-.023.019-.022.018-.023.02-.024.018-.023.02-.024.018-.023.019-.023.019-.024.019-.023.018-.024.019-.023.019-.024.018-.023.018-.024.019-.024.019-.023.018-.024.018-.023.019-.024.018-.023.018-.024.019-.024.019-.024.017-.024.019-.024.018-.024.017-.024.019-.024.018-.024.017-.024.02-.024.017-.024.018-.024.017-.024.018-.024.018-.025.017-.024.019-.024.018-.024.016-.025.018-.024.018-.024.018-.025.017-.024.018-.025.017-.023.017-.025.018-.024.018-.025.016-.024.018-.025.017-.025.018-.024.016-.025.018-.025.017-.024.017-.025.017-.025.017-.025.017-.025.017-.024.017-.025.017-.025.016-.025.017-.025.017-.025.016-.025.018-.025.016-.025.016-.025.017-.025.017-.026.016-.025.017-.025.016-.025.016-.025.017-.026.016-.025.016-.025.017-.026.016-.025.016-.025.016-.026.017-.025.015-.026.016-.025.017-.027.015-.025.016-.026.015-.025.016-.026.017-.026.015-.025.016-.026.016-.026.015-.025.016-.026.015-.026.016-.026.016-.026.014-.026.016-.025.015-.026.016-.026.015-.026.015-.026.015-.026.015-.026.016-.026.015-.026.014-.026.016-.027.014-.026.016-.026.015-.026.014-.027.015-.027.015-.026.015-.026.015-.026.014-.027.015-.026.014-.026.015-.027.015-.026.014-.027.015-.026.013-.027.015-.026.014-.027.015-.026.014-.027.014-.028.015-.026.013-.027.015-.027.013-.026.015-.027.013-.027.014-.027.015-.026.013-.027.014-.027.013-.027.015-.027.013-.027.014-.027.013-.027.014-.027.013-.027.014-.027.013-.028.014-.027.012-.027.014-.027.013-.027.014-.027.012-.028.014-.027.013-.027.013-.028.013-.027.013-.027.013-.028.013-.027.012-.028.014-.027.012-.028.013-.027.012-.028.014-.027.012-.028.013-.027.012-.028.013-.028.012-.028.013-.027.012-.028.013-.028.012-.027.012-.028.012-.028.013-.028.011-.028.013-.027.012-.028.012-.028.012-.028.012-.028.012-.028.012-.028.011-.028.013-.028.011-.028.012-.028.011-.029.013-.028.011-.028.012-.028.011-.028.012-.028.011-.029.012-.028.011-.028.01-.029.012-.028.012-.028.011-.029.01-.028.012-.028.01-.029.012-.028.011-.029.01-.028.011-.029.012-.028.01-.029.012-.028.01-.029.01-.029.01-.028.011-.029.01-.029.01-.028.011-.029.01-.029.011-.028.01-.03.01-.028.011-.029.01-.029.011-.029.01-.029.01-.028.009-.03.01-.028.01-.03.01-.028.008-.03.01-.028.01-.03.009-.028.01-.03.01-.029.008-.029.01-.029.008-.029.01-.03.01-.028.009-.03.009-.029.008-.03.009-.028.009-.03.009-.029.009-.03.008-.029.009-.03.009-.028.008-.03.009-.03.008-.029.009-.029.008-.03.008-.029.009-.03.008-.03.008-.029.008-.03.008-.029.009-.03.008-.03.008-.029.008-.03.008-.03.007-.029.008-.03.008-.03.008-.03.007-.029.008-.03.008-.03.007-.03.008-.03.007-.03.008-.03.007-.029.008-.03.007-.03.007-.03.008-.03.007-.03.007-.03.007-.03.007-.03.007-.03.007-.03.007-.03.007-.03.007-.03.006-.03.007-.03.007-.03.007-.031.006-.03.007-.03.006-.03.007-.031.006-.03.007-.03.006-.031.006-.03.007-.03.006-.031.006-.03.006-.031.006-.03.006-.031.006-.03.006-.031.006-.03.006-.031.006-.03.006-.031.005-.03.006-.031.006-.03.005-.031.006-.03.006-.032.005-.03.006-.031.005-.03.005-.032.006-.03.005-.031.005-.03.005-.032.005-.03.005-.031.005-.03.005-.032.005-.03.005-.032.005-.03.005-.031.005-.031.004-.031.005-.03.005-.032.004-.03.005-.032.004-.03.004-.032.005-.031.004-.031.005-.031.004-.032.004-.03.004-.032.004-.03.004-.032.004-.03.004-.032.004-.031.004-.032.004-.03.004-.032.003-.031.004-.032.004-.03.003-.032.004-.031.003-.032.004-.031.003-.032.004-.03.003-.033.003-.03.004-.032.003-.031.003-.032.003-.031.003-.032.003-.031.003-.032.003-.031.003-.032.003-.031.002-.033.003-.03.003-.033.002-.03.003-.033.002-.031.003-.032.002-.031.003-.033.002-.03.002-.033.003-.031.002-.033.002-.03.002-.033.002-.031.002-.033.002-.03.002-.033.002-.031.002-.033v-.03l.003-.034.002-.03.002-.034v-.03l.003-.033v-.031l.003-.033v-.032l.002-.033.002-.031v-.033l.002-.031v-.034l.002-.03v-.034l.002-.03v-.034l.002-.03v-.034l.002-.03v-.065l.002-.035v-.064l.002-.03v-.168l.002-.026v-.128c0-.427-.014-.852-.04-1.273l-.014-.198a20.202 20.202 0 0 0 -.447-2.993l-.035-.149a30.255 30.255 0 0 0 -.079-.323l-.016-.06-.025-.095c-.009-.039-.02-.077-.03-.115l-.037-.135-.065-.23-.04-.137-.026-.085-.043-.141-.021-.069-.019-.059-.038-.118a18.536 18.536 0 0 0 -.326-.926 19.073 19.073 0 0 0 -.234-.584l-.014-.035-.019-.044a18.932 18.932 0 0 0 -.697-1.478l-.008-.016-.019-.035c-.405-.769-.858-1.509-1.357-2.215l-.008-.012-.028-.04a61.083 61.083 0 0 0 -.137-.191l-.01-.013-.001-.003a16.793 16.793 0 0 0 -.21-.282l-.04-.053a18.418 18.418 0 0 0 -.562-.704l-.038-.046a6.406 6.406 0 0 0 -.086-.1l-.031-.037-.04-.046-.038-.045-.04-.046-.04-.045-.005-.007a23.698 23.698 0 0 0 -.324-.36l-.031-.034-.041-.044c-.104-.112-.21-.223-.317-.332l-.014-.015-.033-.033a12.662 12.662 0 0 0 -.203-.204l-.018-.019-.015-.014a21.815 21.815 0 0 0 -.328-.317l-.064-.06c-.252-.235-.51-.464-.773-.686l-.066-.055-.292-.24-.031-.024-.043-.034a6.634 6.634 0 0 0 -.098-.078l-.048-.037a11.25 11.25 0 0 0 -.317-.243l-.164-.122a19.967 19.967 0 0 0 -1.653-1.092l-.073-.043a18.32 18.32 0 0 0 -.532-.3c-.26-.142-.521-.277-.787-.407l-.049-.024a19.06 19.06 0 0 0 -.323-.154l-.005-.002-.055-.025-.055-.026-.101-.045c-.115-.052-.23-.102-.345-.151-.067-.03-.135-.058-.203-.086l-.02-.009-.032-.012a19.286 19.286 0 0 0 -.573-.225l-.135-.05-.058-.021c-.067-.025-.136-.05-.204-.073l-.027-.01-.027-.009-.123-.042-.155-.052-.043-.015-.055-.017a9.427 9.427 0 0 0 -.111-.036l-.01-.003-.052-.017a14.259 14.259 0 0 0 -.243-.075 19.7 19.7 0 0 0 -1.452-.378l-.042-.009-.033-.007a19.2 19.2 0 0 0 -.516-.104l-.061-.012-.062-.011-.027-.005a20.107 20.107 0 0 0 -1.348-.196l-.055-.006h-.003a19.844 19.844 0 0 0 -.883-.076l-.064-.004-.063-.004-.064-.003-.042-.003-.086-.004-.064-.003a15.56 15.56 0 0 0 -.293-.01l-.028-.002-.064-.001a11.702 11.702 0 0 0 -.387-.007h-.317l-.027.001h-.036l-.028.001h-.034l-.028.001h-.036l-.028.001h-.034l-.028.001-.035.001-.028.001h-.034l-.028.002h-.035l-.028.002h-.034l-.028.002h-.036l-.027.002-.035.001-.027.001-.037.002-.026.001-.039.002h-.023l-.047.003h-.015l-.062.004-.016.001-.046.003-.024.001-.038.002-.025.002-.037.002-.027.002-.035.002-.027.002-.035.002-.028.002-.034.003-.028.002-.034.002-.028.003-.033.002-.028.002-.035.003-.028.003-.033.002-.028.003-.034.003-.028.002-.034.003-.027.003-.036.003-.026.002-.036.004-.025.002-.04.005-.02.002-.062.006h-.004l-.058.006-.02.003-.041.004-.024.003-.036.004-.026.003-.036.004-.027.003-.033.004-.028.004-.034.004-.027.003-.033.004-.028.004-.034.004-.027.004-.033.004-.028.004-.033.004-.028.004-.033.005-.027.003-.034.005-.027.004-.035.005-.026.004-.035.005-.025.004-.038.006-.023.003-.047.007-.013.002-.06.01-.017.002-.043.007-.023.004-.037.006-.025.004-.035.006-.027.005-.033.006-.027.004-.033.006-.028.005-.032.005-.027.005-.033.006-.027.005-.033.006-.027.005-.033.006-.027.005-.032.007-.027.005-.034.006-.026.005-.033.007-.026.005-.035.007-.025.005-.036.007-.023.005-.04.008-.02.004-.059.013-.008.002-.051.01-.02.005-.04.008-.023.006-.035.007-.026.006-.033.007-.026.006-.032.008-.028.006-.032.007-.027.006-.032.008-.026.006-.033.008-.027.006-.03.008-.028.006-.032.008-.026.006-.033.008-.027.007-.032.008-.026.006-.032.009-.026.006-.035.009-.024.006-.036.01-.022.005-.046.012-.011.003-.059.016-.017.005-.04.01-.024.007-.034.01-.025.006-.034.01-.025.006-.032.01-.026.007-.032.009-.026.007-.031.01-.028.007-.03.009-.027.008-.031.009-.026.008-.031.009-.026.008-.032.009-.026.008-.032.01-.025.007-.032.01-.025.008-.034.01-.024.007-.034.011-.023.007-.038.012-.02.006-.055.018-.012.004-.046.015-.02.007-.036.011-.024.008-.032.011-.025.008-.032.01-.025.01-.032.01-.026.009-.03.01-.026.009-.03.01-.027.01-.03.01-.027.01-.03.01-.026.009-.03.01-.026.01-.03.01-.025.01-.032.011-.025.01-.03.01-.026.01-.032.012-.023.008-.034.013-.022.008-.044.016-.011.005-.056.02-.02.008-.035.014-.023.009-.033.012-.024.01-.031.012-.025.01-.03.012-.026.01-.03.011-.025.01-.03.012-.025.01-.03.013-.025.01-.03.012-.025.01-.03.012-.026.011-.029.012-.025.01-.03.013-.025.01-.03.013-.024.01-.03.014-.025.01-.032.013-.023.01-.035.016-.019.008-.053.023-.015.007-.039.017-.023.01-.031.014-.024.01-.03.014-.025.011-.03.013-.024.012-.029.013-.026.011-.028.013-.025.012-.028.013-.026.012-.028.013-.025.012-.028.013-.026.012-.028.013-.025.012-.029.014-.025.012-.028.013-.025.012-.029.014-.024.012-.029.014-.024.012-.031.015-.022.01-.039.02-.013.007-.005.002-.048.024-.021.01-.031.016-.023.012-.03.015-.024.012-.029.015-.025.012-.027.015-.025.012-.027.015-.025.013-.027.014-.026.013-.026.014-.026.013-.026.015-.026.013-.026.014-.025.014-.027.014-.025.014-.027.014-.025.014-.027.015-.024.013-.028.015-.024.013-.028.016-.023.013-.03.017-.021.011-.051.029-.02.01-.031.018-.023.014-.029.016-.023.013-.027.016-.025.014-.026.015-.025.014-.026.015-.025.015-.026.015-.024.015-.026.015-.025.015-.026.015-.025.015-.025.015-.025.015-.025.015-.025.015-.026.015-.024.015-.026.016-.024.015-.026.016-.024.015-.026.016-.024.015-.027.016-.023.014-.03.02-.019.011-.017.012-.032.02-.023.014-.026.016-.025.016-.025.016-.024.016-.025.016-.025.016-.023.015-.025.017-.024.015-.025.017-.024.016-.025.016-.024.016-.025.016-.024.016-.025.017-.024.016-.024.016-.024.016-.025.017-.024.016-.024.017-.024.016-.025.017-.024.016-.024.017-.024.016-.024.017-.024.017-.024.016-.047.033-.024.017-.024.017-.024.017-.024.016-.023.018-.023.016-.025.018-.023.016-.024.018-.023.017-.025.017-.022.017-.025.018-.023.016-.024.018-.023.017-.024.018-.023.017-.024.018-.023.016-.024.019-.023.016-.023.019-.022.016-.025.019-.022.017-.024.018-.022.017-.025.019-.02.016-.026.02-.017.012-.029.022-.028.023-.017.013-.026.02-.02.016-.024.02-.021.016-.025.02-.021.016-.025.02-.02.016-.025.02-.02.017-.026.02-.02.016-.024.02-.022.017-.024.02-.021.017-.024.02-.02.017-.025.02-.02.017-.025.02-.02.017-.024.02-.02.017-.025.02-.02.017-.025.021-.019.016-.026.022-.014.013-.101.086-.015.013-.026.023-.018.015-.026.023-.018.016-.025.022-.018.016-.025.022-.019.017-.025.021-.019.017-.024.022-.02.017-.023.022-.02.017-.023.022-.019.017-.025.022-.019.017-.024.022-.018.017-.024.023-.018.016-.025.023-.018.016-.025.024-.016.015-.026.024-.014.013-.107.101-.005.004-.028.027-.013.014-.026.025-.016.015-.025.024-.017.016-.025.024-.016.017-.025.024-.017.016-.024.024-.018.017-.024.024-.017.017-.024.024-.017.017-.024.024-.016.017-.024.024-.018.017-.024.024-.016.017-.025.025-.015.016-.025.025-.015.015-.026.027-.011.013-.03.029-.003.004a8.299 8.299 0 0 0 -.107.112l-.007.008-.028.029-.012.013-.026.027-.015.015-.025.027-.014.016-.024.026-.016.016-.024.026-.015.017-.023.026-.016.017-.024.025-.015.017-.023.026-.016.017-.024.026-.015.017-.023.027-.015.016-.024.027-.015.016-.024.027-.013.015-.026.029-.01.012-.028.032-.005.006a53.15 53.15 0 0 0 -.137.157l-.008.01-.027.03-.01.013-.025.03-.013.015-.025.029-.012.015-.024.028-.014.017-.024.028-.013.016-.023.028-.014.017-.023.028-.014.016-.023.029-.014.016-.022.029-.014.016-.023.029-.012.015-.024.03-.012.014-.025.031-.01.012-.026.034-.007.007-.134.171v.001l-.028.037-.007.009-.026.034-.01.012-.025.032-.01.014-.024.031-.012.016-.023.03-.012.016-.023.03-.011.016-.023.03-.013.016-.022.031-.012.016-.023.03-.01.016-.024.032-.011.014-.023.033-.01.013-.024.034-.009.011-.026.036-.005.007-.157.222-.002.003-.027.039-.007.01-.025.035-.008.012-.024.034-.01.014-.022.034-.01.014-.023.033-.01.015-.022.033-.01.015-.022.033-.01.015-.022.033-.01.015-.023.034-.01.014-.022.034-.008.013-.023.036-.008.011-.025.038-.004.007c-.06.092-.119.185-.177.278l-.003.004-.025.04-.005.01-.024.038-.007.011-.022.037-.009.013-.021.036-.009.013-.022.036-.008.014-.02.035-.01.015-.021.035-.008.014-.022.036-.007.013-.022.037-.008.012-.023.038-.005.01-.024.04-.004.008-.025.043v.001l-.167.293-.002.004-.024.043-.005.008-.022.04-.005.012-.022.039-.006.012-.02.038-.008.013-.021.038-.006.013-.021.038-.007.013-.02.038-.007.013-.02.039-.006.011-.021.04-.006.01-.021.042-.005.007-.023.045v.002c-.06.116-.12.234-.178.352l-.002.005-.022.044-.004.008-.02.043-.005.01-.02.041-.006.011-.019.041-.006.012-.019.04-.006.012-.019.041-.005.012-.02.041-.005.01-.02.043-.003.01-.02.043-.004.007-.022.047v.002c-.055.12-.109.243-.162.365l-.02.049-.003.005-.02.046-.003.008-.019.044-.004.01-.018.043-.005.01-.017.044-.005.01-.017.044-.005.01-.017.044-.004.01-.02.044-.002.008-.019.047-.002.006-.019.048v.002c-.057.142-.112.285-.165.428l-.02.051-.001.005-.018.048-.002.007-.017.047-.003.008-.017.046-.003.01-.016.045-.003.01-.017.046-.003.008-.016.047-.003.007-.017.049-.002.005-.016.05-.001.002c-.056.164-.11.328-.16.493l-.002.001-.015.052-.001.005-.016.05-.002.006-.015.049-.003.007-.014.049-.003.008-.014.048-.002.008-.015.048-.002.007-.013.05-.003.005-.014.052-.001.002a19.99 19.99 0 0 0 -.151.56l-.001.001-.014.053v.005l-.013.051-.002.006-.012.05-.002.007-.012.051-.002.007-.012.05-.002.006-.011.052-.003.005-.011.053-.001.002c-.048.208-.094.417-.135.628l-.001.001-.01.055-.002.004-.01.053-.001.006-.01.052v.006l-.011.053-.001.005-.01.053v.004l-.01.055v.002c-.043.231-.08.463-.114.697v.002l-.009.056v.004l-.008.054v.005l-.007.055-.001.004-.008.055v.004l-.008.056v.002a19.928 19.928 0 0 0 -.166 2.584v40h-4.956v-20.634c-6.826 12.301-19.947 20.633-35 20.633-22.076 0-40-17.924-40-40s17.924-40 40-40h15v5h-15c-19.317 0-35 15.683-35 35s15.683 35 35 35 35-15.683 35-35v-60h5z" />
</svg>
