<?xml version="1.0" encoding="utf-8"?>
<!DOCTYPE svg PUBLIC "-//W3C//DTD SVG 1.1//EN" "http://www.w3.org/Graphics/SVG/1.1/DTD/svg11.dtd">
<svg version="1.1" xmlns="http://www.w3.org/2000/svg" xmlns:xlink="http://www.w3.org/1999/xlink" width="1024" height="1024" viewBox="0 0 1024 1024"><g id="icomoon-ignore">
</g>
<path d="M512 0c-282.774 0-512 229.226-512 512s229.226 512 512 512c282.774 0 512-229.226 512-512s-229.226-512-512-512zM240.742 181.17h192.488c37.74 0 65.938 1.874 96.004 10.83 74.484 23.174 126.41 84.55 139.32 171.568 17.116 2.134 32.224 6.018 46.52 12.556 39.292 17.54 67.94 58.186 67.94 111.504 0 48.412-23.686 86.946-62.276 106.592v1.472c53.32 15.44 81.968 63.748 81.968 119.88 0 65.244-39.858 114.396-91.074 131.938-23.858 7.712-46.978 9.106-74.342 9.106h-234.338v-54.642h61.542v-170.096c-9.846 0.584-20.022 0.742-30.766 0.742h-192.986v-49.728h56.124v-352.492h-56.124v-49.23zM360.866 233.598v346.584h69.166c12.352 0 23.632-0.29 34.462-1.472v-163.446h-61.542v-53.91h198.16c-11.358-58.826-45.356-99.896-93.79-117.414-24.948-8.956-47.868-10.342-77.29-10.342h-69.166zM534.646 418.958v136.366c41.536-25.908 67.246-73.39 70.152-136.366h-70.152zM671.020 425.11c-3.474 60.306-24.206 109.418-58.59 144.738h26.098c44.898 0 73.104-30.916 73.104-75.816 0-28.766-11.2-53.302-32.248-65.228-2.678-1.34-5.522-2.654-8.364-3.694zM534.646 627.2v172.064h105.354c14.028 0 30.728-1.528 44.064-7.136 28.766-11.934 47.016-42.82 47.016-80.006 0-51.216-33.5-84.922-85.416-84.922h-111.018z"></path>
</svg>
